<?xml version="1.0" encoding="UTF-8"?>
<svg id="Layer_1" xmlns="http://www.w3.org/2000/svg" version="1.1" viewBox="0 0 1000 500">
  <!-- Generator: Adobe Illustrator 30.2.1, SVG Export Plug-In . SVG Version: 2.1.1 Build 1)  -->
  <defs>
    <style>
      .st0, .st1 {
        fill: #fd5c63;
      }

      .st2 {
        fill: #333;
      }

      .st1 {
        fill-rule: evenodd;
      }
    </style>
  </defs>
  <path class="st1" d="M181.35,160.28c-25.01,14.27-47.03,27.48-48.94,29.35-5.86,5.78-2.73,6.78,36.34,11.66,19.63,2.45,38.29,4.81,41.48,5.24l5.8.79.99-6.08c.55-3.35,3.45-18.63,6.44-33.96,5.62-28.77,6.19-33.01,4.4-32.97-.58.01-21.51,11.7-46.53,25.97ZM63.29,181.52c14.11,41.06,15.33,43.57,23.88,49.05,10.22,6.56,68.91,29.66,75.35,29.66,2.29,0,4.09-8.31,2.73-12.6-.69-2.16-5.22-5.04-15.52-9.85-20.29-9.47-26.14-13.81-30.51-22.57-4.3-8.63-4.69-16.92-1.06-22.84,1.41-2.31,6.43-6.4,11.15-9.1,4.72-2.69,8.6-5.34,8.62-5.89.02-.54-6.41-2.98-14.3-5.4-7.89-2.43-26.31-8.12-40.93-12.65-14.62-4.53-27.32-8.24-28.23-8.24-.99,0,2.53,12.14,8.82,30.44ZM140.01,215.54c-1.54,2.49,5.87,7.88,16.2,11.77,24.68,9.32,27.94,12.71,27.94,29.07,0,12.67-2.95,16.55-19.3,25.35-8.9,4.79-12.4,7.34-11.08,8.08,1.96,1.1,16.54,6.41,55.57,20.26,11.93,4.23,24.38,8.69,27.67,9.91,3.29,1.22,6.28,1.92,6.65,1.55.97-.97-31.63-96.71-33.67-98.88-.47-.5-46.48-6.25-61.14-7.63-4.42-.42-8.38-.18-8.82.52ZM72.97,241.93c-.43.69-2.64,11.23-4.92,23.42-2.28,12.19-5.68,30.35-7.56,40.36-1.88,10.01-3,18.6-2.5,19.11,1.62,1.62,81.36-36.18,98.01-46.46,2.6-1.61,4.18-3.43,3.5-4.06-.68-.62-8.48-3.51-17.33-6.41-22.83-7.5-49.72-17.78-59.81-22.87-4.74-2.39-8.97-3.78-9.39-3.09Z"/>
  <g>
    <path class="st2" d="M339.11,253.56c0,6.46-1.34,12.17-4.02,17.13-2.68,4.96-6.47,8.86-11.36,11.68-4.89,2.82-10.66,4.24-17.31,4.24-2.99,0-5.9-.2-8.73-.61-2.83-.4-5.64-1.08-8.44-2.03-2.8-.95-5.7-2.25-8.69-3.92v-25.07c4.08,2.75,8.27,4.9,12.57,6.45,4.3,1.54,8.23,2.32,11.79,2.32,2.04,0,3.72-.33,5.02-1,1.31-.67,2.28-1.58,2.92-2.74.64-1.16.96-2.5.96-4.02s-.26-2.93-.78-4.24c-.52-1.31-1.69-2.75-3.49-4.35-1.81-1.59-4.61-3.57-8.41-5.95-3.04-1.95-5.79-3.91-8.26-5.88-2.47-1.97-4.57-4.13-6.3-6.48-1.73-2.35-3.06-5.07-3.99-8.16-.93-3.09-1.39-6.72-1.39-10.9,0-6.17,1.21-11.54,3.63-16.1,2.42-4.56,5.98-8.1,10.69-10.61,4.7-2.52,10.47-3.78,17.31-3.78,4.32,0,8.67.62,13.04,1.85,4.37,1.24,8.79,3.11,13.25,5.63l-6.62,21.73c-3.61-2.28-6.96-3.96-10.04-5.06-3.09-1.09-5.96-1.64-8.62-1.64-1.76,0-3.19.3-4.31.89-1.12.59-1.94,1.39-2.46,2.39-.52,1-.78,2.14-.78,3.42,0,1.85.31,3.44.93,4.77.62,1.33,1.89,2.74,3.81,4.24,1.92,1.5,4.85,3.45,8.8,5.88,4.18,2.56,7.7,5.27,10.58,8.12,2.87,2.85,5.05,6.03,6.52,9.55,1.47,3.51,2.21,7.6,2.21,12.25Z"/>
    <path class="st2" d="M413.2,244.66c0,5.18-.56,10.25-1.67,15.21-1.12,4.96-2.96,9.46-5.52,13.5-2.56,4.04-5.95,7.25-10.15,9.65-4.2,2.4-9.42,3.6-15.64,3.6-5.7,0-10.61-1.18-14.75-3.53-4.13-2.35-7.53-5.51-10.19-9.47-2.66-3.96-4.63-8.45-5.91-13.46-1.28-5.01-1.92-10.17-1.92-15.49,0-7.74,1.12-14.76,3.35-21.05,2.23-6.29,5.78-11.29,10.65-15,4.87-3.7,11.22-5.56,19.05-5.56,6.55,0,12.28,1.63,17.17,4.88,4.89,3.25,8.7,7.97,11.43,14.14,2.73,6.17,4.1,13.7,4.1,22.58ZM371.31,244.94c0,4.8.32,8.83.96,12.11.64,3.28,1.63,5.75,2.96,7.41,1.33,1.66,3.04,2.49,5.13,2.49,2.23,0,3.99-.82,5.27-2.46s2.21-4.12,2.78-7.44c.57-3.32.85-7.46.85-12.4s-.29-9.02-.85-12.25-1.5-5.65-2.78-7.27c-1.28-1.61-3.04-2.42-5.27-2.42-3.13,0-5.43,1.81-6.87,5.41-1.45,3.61-2.17,9.21-2.17,16.81Z"/>
    <path class="st2" d="M455.08,286.62c-7.22,0-13.23-1.46-18.02-4.38-4.8-2.92-8.38-7.44-10.76-13.57-2.38-6.13-3.56-13.94-3.56-23.44,0-7.83,1.13-14.93,3.38-21.3,2.26-6.36,5.81-11.43,10.65-15.21,4.84-3.78,11.09-5.66,18.73-5.66,4.46,0,8.51.51,12.15,1.53,3.63,1.02,7.04,2.55,10.22,4.59l-6.27,18.81c-2.42-1.61-4.82-2.81-7.19-3.6-2.38-.78-4.8-1.17-7.27-1.17-2.14,0-3.99.85-5.56,2.56-1.57,1.71-2.79,4.19-3.67,7.44-.88,3.25-1.32,7.25-1.32,12s.43,8.63,1.28,11.79,2.1,5.53,3.74,7.12c1.64,1.59,3.67,2.39,6.09,2.39,3.09,0,6.15-.61,9.19-1.82,3.04-1.21,6.01-2.98,8.9-5.31v20.09c-2.9,2.42-6.07,4.22-9.51,5.38-3.44,1.16-7.18,1.75-11.22,1.75Z"/>
    <path class="st2" d="M500.46,172c4.37,0,7.55,1.04,9.55,3.13,1.99,2.09,2.99,5.18,2.99,9.26s-1.04,7.15-3.13,9.19c-2.09,2.04-5.22,3.06-9.4,3.06s-7.25-1.02-9.37-3.06c-2.11-2.04-3.17-5.1-3.17-9.19s1-7.29,2.99-9.33,5.18-3.06,9.55-3.06ZM512.28,204.48v80.71h-23.65v-80.71h23.65Z"/>
    <path class="st2" d="M558.73,203.06c8.03,0,14.38,2.4,19.06,7.19,4.68,4.8,7.02,12.13,7.02,22.01v52.93h-17.03l-3.99-10.69h-.43c-1.71,2.71-3.53,4.96-5.45,6.77-1.92,1.81-4.11,3.15-6.55,4.02-2.45.88-5.36,1.32-8.73,1.32-4.61,0-8.31-1.26-11.11-3.78-2.8-2.52-4.83-5.77-6.09-9.76-1.26-3.99-1.89-8.17-1.89-12.54,0-8.64,2.32-15.1,6.95-19.38,4.63-4.27,11.36-6.58,20.2-6.91l10.54-.43v-2.07c0-3.28-.63-5.75-1.89-7.41-1.26-1.66-3.22-2.49-5.88-2.49-2.33,0-4.9.49-7.73,1.46-2.83.97-6.04,2.48-9.65,4.52l-6.13-17.52c3.94-2.33,8.33-4.12,13.18-5.38,4.84-1.26,10.04-1.89,15.6-1.89ZM561.22,249.15l-4.42.29c-3.18.14-5.58,1.06-7.19,2.74-1.62,1.69-2.42,4.14-2.42,7.37,0,2.75.47,4.82,1.42,6.2.95,1.38,2.37,2.07,4.27,2.07,2.33,0,4.3-1.06,5.91-3.17s2.42-4.9,2.42-8.37v-7.12Z"/>
    <path class="st2" d="M622.91,285.19h-23.65v-110.84h23.65v110.84Z"/>
    <path class="st0" d="M717.51,285.19h-28.92l-27.14-64.75h-.57c.29,3.8.51,7.33.68,10.58.17,3.25.29,6.2.36,8.83s.11,4.95.11,6.95v38.4h-23.01v-104.15h28.71l27,62.97h.57c-.19-3.51-.36-6.79-.5-9.83-.14-3.04-.26-5.84-.36-8.41-.1-2.56-.14-4.89-.14-6.98v-37.75h23.22v104.15Z"/>
    <path class="st0" d="M745.29,172c4.37,0,7.55,1.04,9.54,3.13,2,2.09,2.99,5.18,2.99,9.26s-1.04,7.15-3.13,9.19c-2.09,2.04-5.22,3.06-9.4,3.06s-7.25-1.02-9.37-3.06c-2.11-2.04-3.17-5.1-3.17-9.19s1-7.29,2.99-9.33c2-2.04,5.18-3.06,9.55-3.06ZM757.12,204.48v80.71h-23.65v-80.71h23.65Z"/>
    <path class="st0" d="M812.61,203.06c6.98,0,12.42,2.59,16.31,7.76,3.89,5.18,5.84,12.47,5.84,21.87v52.5h-23.65v-44.95c0-5.32-.43-9.34-1.28-12.07-.85-2.73-2.75-4.1-5.7-4.1-3.32,0-5.57,1.76-6.73,5.27-1.16,3.51-1.75,9.83-1.75,18.95v36.9h-23.65v-80.71h18.52l2.64,9.97h1.35c1.23-2.56,2.71-4.69,4.42-6.38,1.71-1.68,3.7-2.94,5.98-3.78,2.28-.83,4.84-1.25,7.69-1.25Z"/>
    <path class="st0" d="M848.58,320.24c-1.95,0-3.99-.14-6.13-.43-2.14-.29-4.18-.74-6.13-1.35v-20.02c1.19.47,2.33.82,3.42,1.03,1.09.21,2.14.32,3.13.32,2.23,0,3.86-.83,4.88-2.49,1.02-1.66,1.53-4.13,1.53-7.41v-85.41h23.65v87.26c0,6.51-.97,11.85-2.92,16.03-1.95,4.18-4.74,7.28-8.37,9.3s-7.99,3.07-13.07,3.17ZM848.58,184.39c0-4.18,1-7.29,2.99-9.33,2-2.04,5.18-3.06,9.55-3.06s7.55,1.04,9.54,3.13c2,2.09,2.99,5.18,2.99,9.26s-1.04,7.15-3.13,9.19c-2.09,2.04-5.22,3.06-9.4,3.06s-7.25-1.02-9.37-3.06c-2.11-2.04-3.17-5.1-3.17-9.19Z"/>
    <path class="st0" d="M919.39,203.06c8.03,0,14.38,2.4,19.06,7.19,4.68,4.8,7.02,12.13,7.02,22.01v52.93h-17.03l-3.99-10.69h-.43c-1.71,2.71-3.53,4.96-5.45,6.77-1.92,1.81-4.11,3.15-6.55,4.02-2.45.88-5.36,1.32-8.73,1.32-4.61,0-8.31-1.26-11.11-3.78-2.8-2.52-4.83-5.77-6.09-9.76-1.26-3.99-1.89-8.17-1.89-12.54,0-8.64,2.32-15.1,6.95-19.38,4.63-4.27,11.36-6.58,20.2-6.91l10.54-.43v-2.07c0-3.28-.63-5.75-1.89-7.41-1.26-1.66-3.22-2.49-5.88-2.49-2.33,0-4.9.49-7.73,1.46-2.83.97-6.04,2.48-9.65,4.52l-6.13-17.52c3.94-2.33,8.33-4.12,13.18-5.38,4.84-1.26,10.04-1.89,15.6-1.89ZM921.88,249.15l-4.42.29c-3.18.14-5.58,1.06-7.19,2.74-1.62,1.69-2.42,4.14-2.42,7.37,0,2.75.47,4.82,1.42,6.2.95,1.38,2.37,2.07,4.27,2.07,2.33,0,4.3-1.06,5.91-3.17s2.42-4.9,2.42-8.37v-7.12Z"/>
  </g>
</svg>